<?xml version="1.0" standalone="no"?>
<!DOCTYPE svg PUBLIC "-//W3C//DTD SVG 20010904//EN"
 "http://www.w3.org/TR/2001/REC-SVG-20010904/DTD/svg10.dtd">
<svg version="1.0" xmlns="http://www.w3.org/2000/svg"
 width="73.000000pt" height="56.000000pt" viewBox="0 0 73.000000 56.000000"
 preserveAspectRatio="xMidYMid meet">

<g transform="translate(0.000000,56.000000) scale(0.100000,-0.100000)"
fill="#000000" stroke="none">
<path d="M384 501 c-34 -21 -64 -75 -64 -116 0 -73 64 -135 140 -135 76 0 140
62 140 135 0 41 -30 95 -64 116 -40 25 -112 25 -152 0z m158 -29 c75 -70 26
-192 -78 -192 -61 0 -104 39 -111 101 -4 39 -1 50 23 78 15 18 37 37 48 42 33
13 88 0 118 -29z"/>
<path d="M465 481 c-3 -5 7 -11 22 -13 20 -2 33 -13 45 -38 10 -19 18 -27 18
-18 0 30 -12 49 -41 63 -33 18 -36 18 -44 6z"/>
<path d="M240 199 c-58 -50 -107 -94 -109 -100 -5 -15 39 -59 59 -59 9 0 55
49 103 109 78 100 84 111 69 124 -15 13 -27 6 -122 -74z"/>
</g>
</svg>
